<!DOCTYPE svg PUBLIC "-//W3C//DTD SVG 1.1//EN" "http://www.w3.org/Graphics/SVG/1.1/DTD/svg11.dtd">
<!-- Uploaded to: SVG Repo, www.svgrepo.com, Transformed by: SVG Repo Mixer Tools -->
<svg fill="#ffffff" width="800px" height="800px" viewBox="0 0 256 256" id="Flat" xmlns="http://www.w3.org/2000/svg">
<g id="SVGRepo_bgCarrier" stroke-width="0"/>
<g id="SVGRepo_tracerCarrier" stroke-linecap="round" stroke-linejoin="round"/>
<g id="SVGRepo_iconCarrier"> <path d="M215.99609,48H176V40a24.02718,24.02718,0,0,0-24-24H104A24.02718,24.02718,0,0,0,80,40v8H39.99609a8,8,0,0,0,0,16h8V208a16.01833,16.01833,0,0,0,16,16h128a16.01833,16.01833,0,0,0,16-16V64h8a8,8,0,0,0,0-16ZM112,168a8,8,0,0,1-16,0V104a8,8,0,0,1,16,0Zm48,0a8,8,0,0,1-16,0V104a8,8,0,0,1,16,0Zm0-120H96V40a8.00917,8.00917,0,0,1,8-8h48a8.00917,8.00917,0,0,1,8,8Z"/> </g>
</svg>